<svg fill="none" xmlns="http://www.w3.org/2000/svg" viewBox="0 0 10 14"><path d="M5.894 14H3.961a.869.869 0 01-.858-.858V7.923H1.504a.869.869 0 01-.858-.858V5.568a.87.87 0 01.858-.858h1.585V3.358C3.089 1.352 4.41 0 6.389 0h1.468a.87.87 0 01.858.858V2.63a.869.869 0 01-.858.858h-1.09V4.71H8.22c.262 0 .51.117.67.32a.852.852 0 01.174.712l-.306 1.483a.858.858 0 01-.843.683H6.752v5.234a.88.88 0 01-.858.858zm-4.39-8.49a.062.062 0 00-.058.058V7.08c0 .029.029.058.058.058h2.399v6.004c0 .03.029.058.058.058h1.933c.03 0 .058-.029.058-.058V7.109h1.963c.03 0 .058-.015.058-.03l.306-1.497c0-.029 0-.043-.015-.058-.015-.014-.03-.014-.058-.014H5.967V3.547c0-.523.145-.858.872-.858h1.018a.062.062 0 00.058-.058V.843a.062.062 0 00-.058-.058H6.389c-1.512 0-2.5 1.003-2.5 2.559v2.151H1.503v.015z" fill="#fff"/></svg>