<svg fill="none" xmlns="http://www.w3.org/2000/svg" viewBox="0 0 98 50"><path fill-rule="evenodd" clip-rule="evenodd" d="M21.786 37.653l48.114.042c-4.415-2.948-17.706-4.428-24.059-4.427-1.781 0-4.159.122-6.746.363.276-1.927.299-21.241.026-22.668-4.261.745-3.168 5.381-3.17 9.71 0 4.419.07 8.89-.01 13.301-5.67.707-11.589 1.94-14.155 3.679zm25.442-20.979h4.203c-.152-3.776-.405-7.406 3.562-7.846l.003 23.04-3.498-.324c-.105-3.849-.036-7.804-.021-11.685h-4.25v11.457l-4.31.055c-.002-5.824-.002-11.648.001-17.472C42.92 9.1 41.47.677 47.23 1.01l-.002 15.665zM30.454 32.765c3.526.08 2.789-.916 2.786-4.154l-.002-12.214c-1.333-.163-2.358.752-2.659 1.842-.264.96-.102 12.873-.125 14.526zm30.78.014l-.013-16.417c-3.687-.147-2.776 4.99-2.776 8.08 0 8.492-.776 8.326 2.788 8.337z" fill="#FEFEFE"/><path fill-rule="evenodd" clip-rule="evenodd" d="M21.64 37.653l48.113.042c-4.414-2.948-17.705-4.428-24.058-4.427-1.781 0-4.16.122-6.746.363.275-1.927.299-21.241.025-22.668-4.26.745-3.167 5.381-3.169 9.71-.001 4.419.07 8.89-.01 13.301-5.67.707-11.59 1.94-14.155 3.679zm25.442-20.979h4.203c-.153-3.776-.405-7.406 3.561-7.846l.003 23.04-3.498-.324c-.104-3.849-.036-7.804-.02-11.685h-4.25v11.457l-4.31.055c-.003-5.824-.002-11.648 0-17.472.003-4.8-1.447-13.222 4.313-12.89l-.002 15.665zM30.308 32.765c3.526.08 2.788-.916 2.786-4.154l-.002-12.214c-1.333-.163-2.359.752-2.659 1.842-.265.96-.103 12.873-.125 14.526zm30.779.014l-.013-16.417c-3.686-.147-2.776 4.99-2.776 8.08 0 8.492-.775 8.326 2.789 8.337z" fill="#fff" stroke="#fff" stroke-width=".216"/><path fill-rule="evenodd" clip-rule="evenodd" d="M16.142 48.602v.562h-4.631v-7.487h1.387v6.925h3.244zm2.226.562h-1.375v-7.487h1.375v7.487zm8.014-3.497v2.524a4.928 4.928 0 01-1.372.866c-.474.193-.965.29-1.473.29-1.116 0-2.02-.36-2.711-1.083-.69-.722-1.036-1.668-1.036-2.84 0-1.115.348-2.046 1.045-2.791.696-.744 1.56-1.116 2.59-1.116.628 0 1.17.128 1.633.386.46.258.843.644 1.145 1.158l-.447.313c-.234-.455-.52-.797-.86-1.024a2.09 2.09 0 00-1.185-.34c-.751 0-1.345.31-1.785.928-.437.621-.657 1.466-.657 2.538 0 1.03.21 1.83.63 2.404.419.573 1.006.86 1.755.86.292 0 .563-.044.816-.134.25-.09.468-.222.651-.392v-2.547h1.261zm2.926-.034v3.53H27.92v-7.486h1.388v3.405h3.13v-3.405h1.375v7.487h-1.376v-3.531h-3.13zm7.5 3.53V42.24h-1.961v-.562h5.297v.562h-1.96v6.925h-1.377zm5.768 0H41.2v-7.486h1.376v7.487zm1.938 0v-7.486h1.27l3.877 5.169v-5.169h.665v7.487h-.665L45.18 43.2v5.964h-.665zm13.767-3.496v2.524a4.927 4.927 0 01-1.372.866c-.474.193-.965.29-1.473.29-1.116 0-2.02-.36-2.712-1.083-.69-.722-1.035-1.668-1.035-2.84 0-1.115.347-2.046 1.045-2.791.695-.744 1.56-1.116 2.589-1.116.629 0 1.171.128 1.634.386.46.258.842.644 1.144 1.158l-.447.313c-.233-.455-.52-.797-.86-1.024a2.09 2.09 0 00-1.184-.34c-.751 0-1.346.31-1.785.928-.438.621-.657 1.466-.657 2.538 0 1.03.21 1.83.63 2.404.419.573 1.005.86 1.754.86.293 0 .564-.044.816-.134a1.9 1.9 0 00.652-.392v-2.547h1.26zm2.925-.034v3.53H59.82v-7.486h1.387v3.405h3.13v-3.405h1.376v7.487h-1.376v-3.531h-3.13zm7.043 1.066h2.179l-1.091-2.73-1.088 2.73zm-1.63 2.465l3.075-7.636 3.197 7.636h-1.477l-.78-1.995h-2.58l-.771 1.995h-.663zm6.967-7.487h1.388v4.521c0 .881.124 1.495.37 1.84.247.346.663.518 1.25.518.585 0 1.001-.172 1.246-.518.244-.345.367-.959.367-1.84v-4.52h.665v4.773c0 .964-.22 1.689-.658 2.172-.44.483-1.099.724-1.98.724a3.05 3.05 0 01-1.127-.212 2.391 2.391 0 01-.888-.583 2.093 2.093 0 01-.487-.82c-.098-.307-.146-.733-.146-1.282v-4.773zm7.286 6.065c.165.314.375.558.63.734.255.176.53.264.826.264.4 0 .724-.127.975-.379.25-.252.374-.575.374-.97 0-.633-.558-1.177-1.676-1.636l-.015-.006c-.602-.246-1.028-.525-1.278-.835-.252-.31-.379-.701-.379-1.175 0-.65.216-1.183.65-1.597.432-.417.992-.625 1.68-.625.514 0 .965.116 1.35.348.387.23.673.56.86.984l-.493.33c-.122-.35-.307-.619-.554-.806a1.4 1.4 0 00-.879-.283c-.363 0-.659.117-.89.35-.231.233-.348.537-.348.915 0 .298.096.55.287.76.189.209.546.425 1.07.648.823.356 1.368.694 1.63 1.019.264.325.395.741.395 1.247 0 .673-.233 1.227-.697 1.663-.465.437-1.053.655-1.766.655-.516 0-.959-.1-1.331-.296-.375-.197-.7-.503-.975-.917l.554-.392z" fill="#fff"/><path fill-rule="evenodd" clip-rule="evenodd" d="M85.428 41.697v-1.863h1.04v.258h-.737v.466h.737v.266h-.737v.602h.737v.271h-1.04zm1.28-.372l.242-.113a.34.34 0 00.125.19.393.393 0 00.235.066.308.308 0 00.216-.076.265.265 0 00.078-.2c0-.11-.09-.206-.273-.292a.556.556 0 00-.058-.029c-.206-.099-.341-.19-.411-.27a.447.447 0 01-.102-.298.48.48 0 01.154-.37.584.584 0 01.406-.14c.139 0 .253.025.344.077.094.055.157.13.193.23l-.237.122a.362.362 0 00-.123-.128.278.278 0 00-.153-.041c-.08 0-.146.02-.193.062a.215.215 0 00-.073.172c0 .112.107.217.315.313l.04.018c.184.084.31.167.38.248.068.08.102.182.102.305a.546.546 0 01-.167.42.633.633 0 01-.451.156.654.654 0 01-.391-.11.52.52 0 01-.198-.312zm2.14-1.233v1.605h-.303v-1.605h-.495v-.258h1.29v.258h-.492zm.737 1.465c0-.047.016-.086.05-.12a.152.152 0 01.117-.05c.047 0 .086.016.12.05a.17.17 0 01.047.12.168.168 0 01-.047.117.17.17 0 01-.12.047.16.16 0 01-.117-.047.16.16 0 01-.05-.117zm2.65-.102v.242h-1.248l.696-.834c.089-.104.151-.195.19-.273a.492.492 0 00.06-.217.295.295 0 00-.08-.218.315.315 0 00-.227-.079.291.291 0 00-.209.078.33.33 0 00-.094.212h-.291c0-.167.057-.3.169-.402.112-.099.26-.148.45-.148.18 0 .321.047.425.138a.482.482 0 01.157.378.738.738 0 01-.089.344 3.06 3.06 0 01-.38.505l-.237.274h.709zm1.728-.654c0 .294-.06.526-.18.696a.567.567 0 01-.49.25.57.57 0 01-.492-.253c-.117-.17-.177-.41-.177-.714 0-.305.06-.54.177-.709a.568.568 0 01.495-.255c.214 0 .378.086.495.255.115.17.172.412.172.73zm-.674.685c.122 0 .216-.06.278-.177.063-.12.094-.297.094-.532 0-.229-.031-.404-.091-.523-.063-.12-.151-.18-.271-.18-.123 0-.216.06-.279.18-.063.12-.094.294-.094.529 0 .226.031.4.094.52.063.123.151.183.269.183zm1.48.211v-1.605h-.386l.117-.24h.545v1.845h-.276zm1.186-.445c.044.08.099.14.166.182a.405.405 0 00.227.065.398.398 0 00.3-.117.43.43 0 00.115-.31.399.399 0 00-.12-.303.443.443 0 00-.316-.114.579.579 0 00-.216.039.545.545 0 00-.177.12l-.076-.016.232-.946h.88v.245h-.698l-.109.412a.815.815 0 01.29-.063.58.58 0 01.432.17.61.61 0 01.167.446.651.651 0 01-.196.497c-.127.125-.302.188-.521.188a.76.76 0 01-.336-.068.635.635 0 01-.245-.206l.2-.221z" fill="#FEFEFE"/><path fill-rule="evenodd" clip-rule="evenodd" d="M85.428 41.697v-1.863h1.04v.258h-.737v.466h.737v.266h-.737v.602h.737v.271h-1.04zm1.28-.372l.242-.113a.34.34 0 00.125.19.393.393 0 00.235.066.308.308 0 00.216-.076.265.265 0 00.078-.2c0-.11-.09-.206-.273-.292a.556.556 0 00-.058-.029c-.206-.099-.341-.19-.411-.27a.447.447 0 01-.102-.298.48.48 0 01.154-.37.584.584 0 01.406-.14c.139 0 .253.025.344.077.094.055.157.13.193.23l-.237.122a.362.362 0 00-.123-.128.278.278 0 00-.153-.041c-.08 0-.146.02-.193.062a.215.215 0 00-.073.172c0 .112.107.217.315.313l.04.018c.184.084.31.167.38.248.068.08.102.182.102.305a.546.546 0 01-.167.42.633.633 0 01-.451.156.654.654 0 01-.391-.11.52.52 0 01-.198-.312zm2.14-1.233v1.605h-.303v-1.605h-.495v-.258h1.29v.258h-.492zm.737 1.465c0-.047.016-.086.05-.12a.152.152 0 01.117-.05c.047 0 .086.016.12.05a.17.17 0 01.047.12.168.168 0 01-.047.117.17.17 0 01-.12.047.16.16 0 01-.117-.047.16.16 0 01-.05-.117zm2.65-.102v.242h-1.248l.696-.834c.089-.104.151-.195.19-.273a.492.492 0 00.06-.217.295.295 0 00-.08-.218.315.315 0 00-.227-.079.291.291 0 00-.209.078.33.33 0 00-.094.212h-.291c0-.167.057-.3.169-.402.112-.099.26-.148.45-.148.18 0 .321.047.425.138a.482.482 0 01.157.378.738.738 0 01-.089.344 3.06 3.06 0 01-.38.505l-.237.274h.709zm1.728-.654c0 .294-.06.526-.18.696a.567.567 0 01-.49.25.57.57 0 01-.492-.253c-.117-.17-.177-.41-.177-.714 0-.305.06-.54.177-.709a.568.568 0 01.495-.255c.214 0 .378.086.495.255.115.17.172.412.172.73zm-.674.685c.122 0 .216-.06.278-.177.063-.12.094-.297.094-.532 0-.229-.031-.404-.091-.523-.063-.12-.151-.18-.271-.18-.123 0-.216.06-.279.18-.063.12-.094.294-.094.529 0 .226.031.4.094.52.063.123.151.183.269.183zm1.48.211v-1.605h-.386l.117-.24h.545v1.845h-.276zm1.186-.445c.044.08.099.14.166.182a.405.405 0 00.227.065.398.398 0 00.3-.117.43.43 0 00.115-.31.399.399 0 00-.12-.303.443.443 0 00-.316-.114.579.579 0 00-.216.039.545.545 0 00-.177.12l-.076-.016.232-.946h.88v.245h-.698l-.109.412a.815.815 0 01.29-.063.58.58 0 01.432.17.61.61 0 01.167.446.651.651 0 01-.196.497c-.127.125-.302.188-.521.188a.76.76 0 01-.336-.068.635.635 0 01-.245-.206l.2-.221zM1.316 49.2v-4.647H0v-.377h3.554v.377H2.24v4.648h-.923zm3.523 0h-.73v-5.378h.73v3.432h1.247v-1.346h.73V49.2h-.73v-1.66H4.839v1.66zm3.009-2.7c0-.246.038-.408.115-.477.085-.077.246-.115.5-.115h1.57v.284H8.909c-.13 0-.223.016-.261.054-.046.039-.07.108-.07.208v.83h1.193v.324H8.58v1.046c0 .1.023.17.069.208.046.038.146.054.315.054h1.108v.285H8.348c-.185 0-.316-.039-.393-.116-.069-.077-.107-.238-.107-.477V46.5z" fill="#fff"/></svg>