<svg fill="none" xmlns="http://www.w3.org/2000/svg" viewBox="0 0 81 25"><path fill-rule="evenodd" clip-rule="evenodd" d="M78 .08H3c-1.65 0-3 1.35-3 2.999v18c0 1.65 1.35 3 3 3h75c1.65 0 3-1.35 3-3v-18c0-1.65-1.35-3-3-3zm0 .479c1.39 0 2.52 1.13 2.52 2.52v18c0 1.39-1.13 2.52-2.52 2.52H3c-1.39 0-2.52-1.13-2.52-2.52v-18C.48 1.689 1.61.559 3 .559h75z" fill="#fff"/><path fill-rule="evenodd" clip-rule="evenodd" d="M28.448 6.14c0 .502-.149.903-.447 1.201-.339.355-.78.533-1.323.533-.52 0-.96-.18-1.324-.54a1.81 1.81 0 01-.546-1.34c0-.534.182-.98.546-1.34.363-.36.805-.54 1.324-.54.258 0 .505.05.74.15.234.1.422.235.563.402l-.317.317c-.238-.285-.566-.427-.986-.427-.379 0-.706.133-.983.4-.276.266-.415.612-.415 1.038 0 .425.139.771.415 1.038.277.267.604.4.983.4.402 0 .738-.134 1.006-.402.174-.175.275-.418.302-.73h-1.308v-.432h1.745c.017.094.025.184.025.272z" fill="#FFFFFE"/><path fill-rule="evenodd" clip-rule="evenodd" d="M28.45 6.141h-.022c0 .499-.147.893-.44 1.187-.335.351-.77.526-1.308.526-.515 0-.95-.177-1.31-.534a1.789 1.789 0 01-.539-1.325c0-.528.18-.968.54-1.324.36-.357.794-.535 1.309-.535.255 0 .499.05.73.15.232.099.418.23.556.396l.016-.014-.015-.015-.316.317.015.015.016-.014c-.242-.29-.578-.435-1.002-.435a1.39 1.39 0 00-.998.406c-.28.27-.421.623-.421 1.053 0 .43.14.783.421 1.054.28.27.614.406.998.406.407 0 .749-.137 1.02-.409.18-.179.282-.427.309-.742l.002-.023H26.7v-.39h1.723V5.87l-.02.003c.016.093.024.182.024.268h.043c0-.088-.008-.18-.026-.275l-.003-.018H26.66v.475h1.328v-.021l-.02-.002c-.028.309-.127.546-.297.716a1.343 1.343 0 01-.99.396c-.374 0-.695-.13-.968-.394-.273-.263-.408-.601-.409-1.023 0-.42.136-.76.409-1.023.273-.263.594-.393.968-.393.414 0 .735.14.97.42l.014.017.347-.347-.013-.015a1.505 1.505 0 00-.57-.408 1.876 1.876 0 00-.748-.152c-.524 0-.973.182-1.34.546a1.831 1.831 0 00-.552 1.355c0 .538.185.992.552 1.356.367.364.816.546 1.34.546.547 0 .995-.18 1.338-.54l-.015-.014.015.015c.302-.303.453-.71.453-1.217h-.021zm2.771-1.506h-1.64v1.141h1.479v.433h-1.48V7.35h1.64v.442h-2.102v-3.6h2.102v.443z" fill="#FFFFFE"/><path fill-rule="evenodd" clip-rule="evenodd" d="M31.213 4.636v-.021h-1.661v1.184h1.478v.39h-1.478v1.184h1.64v.4h-2.06V4.215h2.06v.421h.02v-.021.021h.022v-.463H29.09v3.642h2.144V7.33h-1.64V6.231h1.479v-.475h-1.479V4.658h1.64v-.022h-.021zm1.955 3.156h-.462V4.635H31.7v-.443h2.474v.443h-1.006v3.157z" fill="#FFFFFE"/><path fill-rule="evenodd" clip-rule="evenodd" d="M33.17 7.794v-.021h-.442V4.615h-1.005v-.4h2.431v.4H33.15v3.179h.02v-.021.021h.022V4.658h1.006v-.485H31.68v.485h1.006v3.157h.505v-.021h-.021zm2.792-.002h.462v-3.6h-.462v3.6z" fill="#FFFFFE"/><path fill-rule="evenodd" clip-rule="evenodd" d="M35.963 7.794h.021V4.215h.42v3.558h-.44v.021h.02-.02v.021h.483V4.173h-.505v3.642h.021v-.021zm2.515-.002h-.463V4.635H37.01v-.443h2.473v.443h-1.005v3.157z" fill="#FFFFFE"/><path fill-rule="evenodd" clip-rule="evenodd" d="M38.48 7.794v-.021h-.442V4.615h-1.005v-.4h2.43v.4h-1.005v3.179h.021v-.021.021h.022V4.658h1.005v-.485H36.99v.485h1.005v3.157h.506v-.021h-.022zm3.386-.767c.267.27.593.405.978.405.386 0 .712-.135.978-.405.267-.27.4-.614.4-1.033 0-.42-.133-.764-.4-1.034a1.32 1.32 0 00-.978-.404c-.385 0-.711.135-.978.404-.266.27-.4.615-.4 1.034 0 .419.134.763.4 1.033zm2.298.302a1.767 1.767 0 01-1.32.545 1.77 1.77 0 01-1.32-.545 1.84 1.84 0 01-.53-1.335c0-.526.177-.971.53-1.335a1.765 1.765 0 011.32-.546c.523 0 .962.183 1.318.548.355.366.533.81.533 1.333 0 .526-.177.97-.53 1.335z" fill="#FFFFFE"/><path fill-rule="evenodd" clip-rule="evenodd" d="M41.868 7.029l-.015.015c.27.273.602.41.993.41.39 0 .723-.137.993-.41.27-.274.406-.625.406-1.049 0-.423-.135-.774-.406-1.048a1.342 1.342 0 00-.993-.41 1.339 1.339 0 00-.993.41c-.27.274-.406.625-.406 1.048 0 .424.136.775.405 1.049l.016-.015.015-.015c-.262-.266-.393-.604-.394-1.019 0-.414.132-.752.394-1.018a1.3 1.3 0 01.963-.398c.38 0 .7.132.963.398.262.266.394.604.394 1.018 0 .415-.132.753-.395 1.019a1.3 1.3 0 01-.962.398 1.3 1.3 0 01-.963-.398l-.015.015zm2.298.301l-.015-.015c-.35.36-.784.539-1.305.54-.522-.001-.955-.18-1.304-.54a1.819 1.819 0 01-.525-1.32c0-.521.174-.96.525-1.32.35-.36.783-.539 1.304-.539.518 0 .95.18 1.302.542.351.362.527.8.527 1.317 0 .522-.175.96-.524 1.32l.015.015.015.015c.357-.367.537-.819.537-1.35 0-.527-.18-.978-.54-1.347a1.786 1.786 0 00-1.332-.554c-.531 0-.978.184-1.335.552a1.862 1.862 0 00-.536 1.35c0 .53.178.982.536 1.349.357.368.804.552 1.335.552.53 0 .978-.184 1.335-.552l-.015-.015zm1.179.462v-3.6h.563l1.75 2.801h.02l-.02-.694V4.192h.462v3.6h-.482l-1.83-2.936h-.02l.02.694v2.242h-.463z" fill="#FFFFFE"/><path fill-rule="evenodd" clip-rule="evenodd" d="M45.346 7.794h.022V4.215h.53l1.75 2.8h.053l-.02-.715V4.215h.42v3.558h-.45l-1.83-2.937h-.054l.02.716v2.22h-.44v.022h.02-.02v.021h.483V5.551l-.02-.694h-.021v.022h.008l1.83 2.936h.516V4.173h-.505V6.3l.02.694h.021v-.022h-.008l-1.75-2.8h-.596v3.642h.021v-.021zm18.811 10.201h1.12v-7.5h-1.12v7.5zm10.084-4.798l-1.283 3.252h-.039l-1.331-3.252H70.38l1.998 4.545-1.139 2.528h1.168l3.078-7.073H74.24zm-6.35 3.947c-.366 0-.878-.184-.878-.637 0-.58.637-.801 1.187-.801.492 0 .724.106 1.023.25a1.357 1.357 0 01-1.331 1.188zm.136-4.111c-.811 0-1.65.357-1.998 1.148l.994.415c.213-.415.608-.55 1.023-.55.58 0 1.168.347 1.177.965v.077a2.474 2.474 0 00-1.167-.29c-1.072 0-2.162.59-2.162 1.69 0 1.003.878 1.65 1.863 1.65.752 0 1.167-.338 1.428-.734h.038v.579h1.081v-2.876c0-1.331-.994-2.074-2.277-2.074zm-6.92 1.077h-1.591v-2.571h1.592a1.3 1.3 0 011.312 1.285c0 .581-.475 1.286-1.312 1.286zm-.028-3.615h-2.683v7.5h1.12v-2.841h1.563c1.24 0 2.46-.899 2.46-2.33 0-1.43-1.22-2.33-2.46-2.33zm-14.629 6.65c-.773 0-1.42-.648-1.42-1.537 0-.899.647-1.556 1.42-1.556.764 0 1.363.657 1.363 1.556 0 .89-.6 1.537-1.363 1.537zm1.286-3.528h-.039c-.251-.3-.735-.57-1.344-.57-1.276 0-2.445 1.12-2.445 2.56 0 1.431 1.17 2.543 2.445 2.543.61 0 1.093-.27 1.344-.58h.039v.368c0 .976-.522 1.498-1.363 1.498-.686 0-1.112-.493-1.286-.909l-.976.406c.28.677 1.025 1.508 2.262 1.508 1.314 0 2.426-.773 2.426-2.658V13.2h-1.063v.416zm1.836 4.378h1.122v-7.5h-1.122v7.5zm2.775-2.474c-.03-.986.763-1.489 1.333-1.489.445 0 .822.223.948.542l-2.281.947zm3.48-.85c-.213-.571-.86-1.624-2.185-1.624-1.315 0-2.407 1.034-2.407 2.551 0 1.43 1.083 2.552 2.532 2.552a2.54 2.54 0 002.127-1.13l-.87-.58c-.29.425-.686.705-1.257.705-.57 0-.976-.261-1.237-.773l3.412-1.412-.116-.29zm-27.186-.842v1.083h2.591c-.077.609-.28 1.054-.59 1.363-.377.377-.966.793-2 .793-1.595 0-2.842-1.286-2.842-2.881 0-1.595 1.247-2.88 2.841-2.88.86 0 1.49.338 1.953.773l.764-.764c-.648-.619-1.508-1.092-2.717-1.092-2.184 0-4.02 1.778-4.02 3.963s1.836 3.963 4.02 3.963c1.18 0 2.07-.387 2.765-1.111.715-.716.938-1.721.938-2.533 0-.251-.02-.483-.058-.677H28.64zm6.648 3.316c-.774 0-1.44-.638-1.44-1.547 0-.918.666-1.546 1.44-1.546.773 0 1.44.628 1.44 1.546 0 .909-.667 1.547-1.44 1.547zm0-4.098c-1.412 0-2.562 1.072-2.562 2.551 0 1.47 1.15 2.552 2.562 2.552 1.411 0 2.561-1.082 2.561-2.552 0-1.479-1.15-2.552-2.561-2.552zm5.588 4.098c-.774 0-1.44-.638-1.44-1.547 0-.918.666-1.546 1.44-1.546.773 0 1.44.628 1.44 1.546 0 .909-.667 1.547-1.44 1.547zm0-4.098c-1.412 0-2.562 1.072-2.562 2.551 0 1.47 1.15 2.552 2.562 2.552 1.411 0 2.561-1.082 2.561-2.552 0-1.479-1.15-2.552-2.561-2.552z" fill="#FFFFFE"/><mask id="a" maskUnits="userSpaceOnUse" x="5" y="4" width="9" height="16"><path d="M6.304 19.435l-.044-.043c-.175-.184-.278-.471-.278-.843v.088V5.364v.091c0-.402.12-.705.322-.887l7.434 7.434-7.434 7.433zM5.982 5.363z" fill="#fff"/></mask><g mask="url(#a)"><path d="M6.304 19.435l-.044-.043c-.175-.184-.278-.471-.278-.843v.088V5.364v.091c0-.402.12-.705.322-.887l7.434 7.434-7.434 7.433zM5.982 5.363z" fill="#00D4FF"/></g><mask id="b" maskUnits="userSpaceOnUse" x="13" y="9" width="7" height="6"><path d="M16.212 14.577l.056-.033 2.936-1.668c.27-.153.453-.338.55-.534-.097.196-.28.381-.55.535l-2.936 1.668-.056.032zm0-.088l-2.478-2.479 2.478-2.478 2.992 1.7c.38.215.593.494.629.778v.001c-.036.284-.25.562-.63.778l-2.99 1.7z" fill="#fff"/></mask><g mask="url(#b)"><path d="M16.212 14.577l.056-.033 2.936-1.668c.27-.153.453-.338.55-.534-.097.196-.28.381-.55.535l-2.936 1.668-.056.032zm0-.088l-2.478-2.479 2.478-2.478 2.992 1.7c.38.215.593.494.629.778v.001c-.036.284-.25.562-.63.778l-2.99 1.7z" fill="#FC0"/></g><mask id="c" maskUnits="userSpaceOnUse" x="6" y="12" width="11" height="8"><path d="M6.84 19.72zm0-.088a.773.773 0 01-.53-.195l7.433-7.433 2.478 2.478-8.71 4.949a1.38 1.38 0 01-.671.201zm-.533-.11a.62.62 0 01-.038-.036l.038.037z" fill="#fff"/></mask><g mask="url(#c)"><path fill-rule="evenodd" clip-rule="evenodd" d="M6.84 19.72zm0-.088a.773.773 0 01-.53-.195l7.433-7.433 2.478 2.478-8.71 4.949a1.38 1.38 0 01-.671.201zm-.533-.11a.62.62 0 01-.038-.036l.038.037z" fill="url(#paint0_linear)"/></g><mask id="d" maskUnits="userSpaceOnUse" x="6" y="4" width="11" height="9"><path d="M13.742 12.008L6.308 4.574a.771.771 0 01.53-.195c.203 0 .432.065.673.202l8.71 4.948-2.479 2.479zm2.534-2.535l-8.765-4.98a1.38 1.38 0 00-.673-.202h-.005.006c.203 0 .431.065.672.202l8.765 4.98z" fill="#fff"/></mask><g mask="url(#d)"><path d="M13.742 12.008L6.308 4.574a.771.771 0 01.53-.195c.203 0 .432.065.673.202l8.71 4.948-2.479 2.479zm2.534-2.535l-8.765-4.98a1.38 1.38 0 00-.673-.202h-.005.006c.203 0 .431.065.672.202l8.765 4.98z" fill="#00F076"/></g><path fill-rule="evenodd" clip-rule="evenodd" d="M6.931 19.72c.178-.018.372-.082.575-.197l8.709-4.948-8.709 4.948c-.203.115-.397.18-.575.197z" fill="#0A0B09"/><mask id="e" maskUnits="userSpaceOnUse" x="6" y="14" width="11" height="6"><path d="M6.834 19.713a.772.772 0 01-.53-.195c-.002 0-.002-.001-.003-.002l-.038-.037-.004-.004.045-.045a.773.773 0 00.53.195c.203 0 .43-.064.672-.2l8.709-4.95.056.056-.057.032-8.708 4.949c-.204.115-.398.18-.575.197a1.001 1.001 0 01-.097.004z" fill="#fff"/></mask><g mask="url(#e)"><path d="M6.834 19.713a.772.772 0 01-.53-.195c-.002 0-.002-.001-.003-.002l-.038-.037-.004-.004.045-.045a.773.773 0 00.53.195c.203 0 .43-.064.672-.2l8.709-4.95.056.056-.057.032-8.708 4.949c-.204.115-.398.18-.575.197a1.001 1.001 0 01-.097.004z" fill="#D73A48"/></g><path fill-rule="evenodd" clip-rule="evenodd" d="M6.26 19.472c-.175-.185-.278-.472-.278-.843 0 .371.103.657.278.842z" fill="#0A0B09"/><mask id="f" maskUnits="userSpaceOnUse" x="6" y="19" width="1" height="1"><path d="M6.26 19.484h-.001l.045-.045-.045.045z" fill="#fff"/></mask><g mask="url(#f)"><path fill-rule="evenodd" clip-rule="evenodd" d="M6.26 19.484h-.001l.045-.045-.045.045z" fill="url(#paint1_linear)"/></g><path fill-rule="evenodd" clip-rule="evenodd" d="M19.756 12.335a.75.75 0 00.08-.33v-.001a.747.747 0 01-.08.331z" fill="#FC0"/><path fill-rule="evenodd" clip-rule="evenodd" d="M19.84 12.007c0-.314-.21-.628-.629-.866l-2.936-1.668 2.936 1.667c.42.239.63.553.629.867z" fill="#3A3B38"/><mask id="g" maskUnits="userSpaceOnUse" x="16" y="9" width="4" height="4"><path d="M19.836 12.006c-.035-.284-.248-.562-.629-.778l-2.991-1.7.055-.056 2.936 1.668c.42.239.63.552.63.866z" fill="#fff"/></mask><g mask="url(#g)"><path d="M19.836 12.006c-.035-.284-.248-.562-.629-.778l-2.991-1.7.055-.056 2.936 1.668c.42.239.63.552.63.866z" fill="#FC0"/></g><path fill-rule="evenodd" clip-rule="evenodd" d="M5.992 5.254c.038-.609.372-.96.843-.963a.772.772 0 00-.524.195l-.003.002a.777.777 0 00-.042.042c-.155.164-.254.41-.274.724z" fill="#3A3B38"/><mask id="h" maskUnits="userSpaceOnUse" x="6" y="4" width="11" height="6"><path d="M16.215 9.53l-8.71-4.95a1.382 1.382 0 00-.672-.201.771.771 0 00-.53.195L6.26 4.53a.781.781 0 01.045-.044.772.772 0 01.524-.195h.005c.203 0 .432.065.673.202l8.765 4.98-.056.056z" fill="#fff"/></mask><g mask="url(#h)"><path d="M16.215 9.53l-8.71-4.95a1.382 1.382 0 00-.672-.201.771.771 0 00-.53.195L6.26 4.53a.781.781 0 01.045-.044.772.772 0 01.524-.195h.005c.203 0 .432.065.673.202l8.765 4.98-.056.056z" fill="#00F076"/></g><defs><linearGradient id="paint0_linear" x1="14.9" y1="14.37" x2="3.968" y2="25.302" gradientUnits="userSpaceOnUse"><stop stop-color="#DC3D46"/><stop offset="1" stop-color="#B12359"/></linearGradient><linearGradient id="paint1_linear" x1="8.098" y1="18.186" x2="5.232" y2="21.065" gradientUnits="userSpaceOnUse"><stop stop-color="#CE333C"/><stop offset="1" stop-color="#9A2450"/></linearGradient></defs></svg>