<svg fill="none" xmlns="http://www.w3.org/2000/svg" viewBox="0 0 30 48"><path d="M18.05.75h-6.1C5.85.75.9 5.7.9 11.8v24.4c0 6.1 4.95 11.05 11.05 11.05h6.1c6.1 0 11.05-4.95 11.05-11.05V11.8C29.1 5.7 24.15.75 18.05.75zm8.3 35.45c0 4.6-3.75 8.3-8.3 8.3h-6.1c-4.6 0-8.3-3.75-8.3-8.3V11.8c0-4.6 3.7-8.3 8.3-8.3h6.1c4.6 0 8.3 3.75 8.3 8.3v24.4z" fill="#fff"/><path d="M19 32.7l-4 4-4-4c-.55-.55-1.4-.55-1.95 0s-.55 1.4 0 1.95l4.65 4.65c.35.35.85.55 1.3.55.5 0 .95-.2 1.35-.55L21 34.65c.55-.55.55-1.4 0-1.95s-1.45-.5-2 0zm-4-21.15a1.75 1.75 0 100-3.5 1.75 1.75 0 000 3.5zm0 7.75a1.75 1.75 0 100-3.5 1.75 1.75 0 000 3.5zm0 7.75a1.75 1.75 0 100-3.5 1.75 1.75 0 000 3.5z" fill="#fff"/></svg>