<svg fill="none" xmlns="http://www.w3.org/2000/svg" viewBox="0 0 16 16"><path d="M11.725 15.776h-.208c-1.12-.048-3.024-.848-3.104-.88h-.016c-1.6-.752-3.072-1.808-4.384-3.12-.32-.32-.64-.656-.976-1.04C1.757 9.2.941 7.808.43 6.352a9.487 9.487 0 01-.32-1.056 4.226 4.226 0 01.32-2.8c.128-.256.256-.432.384-.576L1.901.832A1.84 1.84 0 013.277.224h.048c.544.032.992.224 1.376.608l1.824 1.824c.848.848.848 1.952 0 2.816l-.736.736 3.728 3.728.768-.768a1.941 1.941 0 011.408-.608c.624 0 1.088.352 1.376.608l.016.016.912.912c.464.464.912.896.928.896.72.72.784 1.744.176 2.704-.752 1.104-2.32 2.08-3.376 2.08zm-.176-.88h.192c.752 0 2.048-.832 2.624-1.68.384-.592.368-1.168-.048-1.584 0 0-.464-.432-.928-.912l-.896-.896c-.128-.112-.432-.384-.784-.384-.448 0-.672.24-.8.352l-.784.768a.883.883 0 01-.624.256.912.912 0 01-.624-.256L5.165 6.816a.879.879 0 010-1.232l.736-.736c.496-.512.496-1.088 0-1.584L4.093 1.456a1.155 1.155 0 00-.784-.352h-.016a.922.922 0 00-.72.32l-.016.032-1.12 1.104a1.538 1.538 0 00-.224.336C.877 3.568.797 4.352.957 5.104c.064.288.16.592.288.944.48 1.36 1.264 2.656 2.464 4.112.304.336.624.688.928.992a15.014 15.014 0 004.128 2.944c.512.208 1.984.768 2.784.8z" fill="#fff"/></svg>