<svg fill="none" xmlns="http://www.w3.org/2000/svg" viewBox="0 0 20 16"><path d="M9.52 9.366a4.697 4.697 0 004.683-4.683A4.697 4.697 0 009.52 0a4.684 4.684 0 000 9.366zm0-8.293c1.99 0 3.61 1.62 3.61 3.61 0 1.99-1.62 3.61-3.61 3.61-1.99 0-3.61-1.62-3.61-3.61 0-1.99 1.62-3.61 3.61-3.61zm9.347 13.99a14.082 14.082 0 00-9.347-3.55c-3.453 0-6.77 1.268-9.346 3.55a.548.548 0 00-.04.761.548.548 0 00.762.04 12.974 12.974 0 018.624-3.279c3.18 0 6.264 1.171 8.644 3.278a.5.5 0 00.351.137.562.562 0 00.41-.176.533.533 0 00-.058-.76z" fill="#4F4F4F"/></svg>