<svg fill="none" xmlns="http://www.w3.org/2000/svg" viewBox="0 0 15 14"><path fill-rule="evenodd" clip-rule="evenodd" d="M12.409 2.029A6.938 6.938 0 007.499 0 6.946 6.946 0 00.561 6.938a6.97 6.97 0 00.93 3.469L.5 14l3.685-.96a6.855 6.855 0 003.314.851c3.826-.015 6.938-3.128 6.938-6.953a6.965 6.965 0 00-2.028-4.91zm-4.91 10.685a5.756 5.756 0 01-2.942-.805l-.217-.124-2.183.573.588-2.121-.14-.217a5.79 5.79 0 01-.882-3.067c0-3.174 2.586-5.76 5.776-5.76 1.534 0 2.99.603 4.073 1.687a5.75 5.75 0 011.688 4.09c0 3.16-2.586 5.745-5.76 5.745zm3.16-4.32c-.17-.093-1.022-.511-1.193-.558-.155-.062-.279-.093-.387.093-.108.17-.45.558-.542.681-.108.109-.201.124-.372.047-.17-.093-.728-.263-1.393-.867-.512-.465-.868-1.022-.96-1.208-.109-.17-.016-.264.077-.356.077-.078.17-.202.263-.31.093-.109.108-.17.17-.294.062-.109.031-.217-.015-.31-.047-.093-.387-.945-.542-1.286-.14-.34-.279-.294-.387-.294h-.325a.659.659 0 00-.465.217c-.155.17-.604.589-.604 1.44 0 .852.62 1.673.712 1.797.093.108 1.224 1.874 2.958 2.617.418.186.744.279.991.372.419.139.79.108 1.1.062.34-.047 1.022-.419 1.177-.821.14-.403.14-.76.108-.821-.077-.077-.201-.124-.371-.201z" fill="#fff"/></svg>