<svg fill="none" xmlns="http://www.w3.org/2000/svg" viewBox="0 0 23 16"><path d="M11.817 1V.5h0-.071a81.095 81.095 0 00-.934.007c-.612.006-1.444.02-2.326.046-.88.026-1.815.066-2.63.126-.8.059-1.526.14-1.968.259A2.998 2.998 0 001.77 3.056c-.226.835-.332 2.087-.385 3.094a41.339 41.339 0 00-.053 1.81V8h.5l-.5.001h0v.039a23.846 23.846 0 00.007.504c.007.334.02.795.046 1.306.053 1.007.16 2.26.385 3.095a2.998 2.998 0 002.119 2.118c.441.12 1.168.2 1.968.26.814.059 1.748.099 2.63.125a124.032 124.032 0 003.258.053h.072V15v.5h.072a96.012 96.012 0 00.933-.007c.612-.006 1.444-.02 2.326-.046a62.243 62.243 0 002.63-.126c.8-.059 1.526-.14 1.968-.259a2.998 2.998 0 002.118-2.119L11.817 1zm0 0V.5h.072a81.049 81.049 0 01.933.007c.612.006 1.444.02 2.326.046.881.026 1.815.066 2.63.126.8.059 1.527.14 1.968.259a2.998 2.998 0 012.118 2.119L11.817 1zm9.985 7h.5v0-.039a24.146 24.146 0 00-.007-.504 41.1 41.1 0 00-.046-1.307c-.053-1.006-.16-2.258-.385-3.093L21.802 8zm0 0h.5v.039a24.134 24.134 0 01-.007.504c-.006.334-.02.795-.046 1.306-.053 1.007-.16 2.26-.385 3.094L21.802 8zm-7.79-.002l-3.692 2.123V5.86l3.692 2.137z" stroke="#fff"/></svg>