<svg fill="none" xmlns="http://www.w3.org/2000/svg" viewBox="0 0 81 24"><path d="M78.16 23.265h0H2.84h0a2.103 2.103 0 01-2.105-2.099V2.836A2.104 2.104 0 012.839.734s0 0 0 0h75.32a2.102 2.102 0 012.102 2.102l.001 18.33a2.099 2.099 0 01-2.101 2.099z" stroke="#fff" stroke-width=".1"/><path d="M18.09 11.88c-.017-1.934 1.584-2.875 1.658-2.919-.908-1.322-2.313-1.503-2.808-1.517-1.18-.124-2.326.706-2.927.706-.614 0-1.54-.694-2.538-.674-1.285.02-2.487.764-3.146 1.918-1.36 2.355-.346 5.815.957 7.718.652.933 1.414 1.973 2.411 1.936.976-.04 1.34-.621 2.517-.621 1.167 0 1.509.621 2.526.598 1.047-.017 1.706-.937 2.335-1.877.754-1.068 1.056-2.12 1.068-2.175-.024-.008-2.033-.775-2.053-3.093zm-1.92-5.688c.524-.656.883-1.549.783-2.454-.76.033-1.709.525-2.256 1.167-.484.565-.916 1.492-.804 2.363.853.064 1.729-.43 2.276-1.076zm16.045 12.711h-1.363l-.747-2.346H27.51l-.711 2.346h-1.327l2.572-7.987h1.588l2.584 7.987zm-2.335-3.33l-.675-2.086c-.072-.213-.206-.715-.403-1.505h-.024c-.08.34-.206.842-.38 1.505l-.663 2.085h2.145zm8.938.38c0 .979-.266 1.753-.799 2.322-.476.505-1.069.758-1.776.758-.763 0-1.311-.272-1.644-.817v3.022h-1.28v-6.201c0-.616-.017-1.246-.048-1.893h1.126l.071.912h.024c.427-.687 1.075-1.031 1.944-1.031.68 0 1.247.268 1.7.805.454.539.682 1.246.682 2.122zm-1.304.046c0-.56-.126-1.022-.38-1.387a1.312 1.312 0 00-1.114-.568c-.316 0-.603.105-.859.314-.257.21-.425.484-.504.824a1.673 1.673 0 00-.059.39v.96c0 .419.129.772.385 1.061.257.288.591.433 1.002.433.482 0 .857-.187 1.125-.557.27-.372.404-.861.404-1.47zm7.93-.047c0 .98-.267 1.754-.799 2.322a2.343 2.343 0 01-1.776.76c-.763 0-1.312-.273-1.645-.818v3.022h-1.28v-6.201c0-.616-.016-1.246-.047-1.893h1.125l.072.912h.023c.427-.687 1.075-1.031 1.944-1.031.68 0 1.247.268 1.702.805.452.539.68 1.246.68 2.122zM44.138 16c0-.56-.127-1.022-.38-1.387a1.31 1.31 0 00-1.113-.568 1.33 1.33 0 00-.86.314 1.45 1.45 0 00-.503.824 1.71 1.71 0 00-.06.39v.96c0 .419.129.772.384 1.061.257.288.591.433 1.003.433.483 0 .858-.187 1.126-.557.269-.372.403-.861.403-1.47zm8.712.663c0 .68-.237 1.233-.71 1.66-.52.466-1.245.7-2.176.7-.86 0-1.549-.167-2.069-.498l.296-1.067a3.562 3.562 0 001.85.498c.482 0 .857-.11 1.125-.326.268-.217.404-.508.404-.87 0-.325-.112-.596-.333-.818-.221-.22-.587-.427-1.102-.616-1.399-.521-2.099-1.284-2.099-2.288 0-.655.248-1.192.741-1.611.494-.419 1.148-.628 1.962-.628.727 0 1.333.126 1.814.379l-.322 1.043a3.171 3.171 0 00-1.535-.367c-.451 0-.805.11-1.059.332a.95.95 0 00-.32.723c0 .316.122.577.367.782.213.19.6.395 1.161.616.688.277 1.194.6 1.517.971.326.371.488.834.488 1.385zm4.243-2.558h-1.41V16.9c0 .711.248 1.066.746 1.066.229 0 .418-.02.569-.06l.035.972c-.252.095-.584.142-.995.142-.506 0-.9-.154-1.186-.463-.284-.308-.427-.825-.427-1.552v-2.903h-.84v-.96h.84v-1.055l1.257-.38v1.434h1.41v.963zm6.352 1.872c0 .885-.253 1.612-.758 2.18-.53.585-1.233.877-2.11.877-.846 0-1.52-.28-2.021-.84-.502-.561-.753-1.268-.753-2.121 0-.893.26-1.624.776-2.192.518-.569 1.216-.853 2.093-.853.845 0 1.524.28 2.038.841.491.544.736 1.246.736 2.108zm-1.326.03c0-.528-.114-.98-.343-1.36-.268-.457-.653-.686-1.15-.686-.513 0-.906.23-1.174.686-.23.38-.343.84-.343 1.383 0 .528.114.982.343 1.36.277.457.663.686 1.163.686.49 0 .873-.234 1.15-.698.236-.387.354-.843.354-1.372zm5.489-1.737a2.219 2.219 0 00-.404-.035c-.45 0-.798.169-1.043.51-.213.3-.32.68-.32 1.137v3.022h-1.28v-3.946a37.81 37.81 0 00-.037-1.813h1.115l.047 1.102h.035c.136-.379.349-.684.64-.913.267-.2.592-.308.925-.308.119 0 .225.008.32.023l.002 1.221zm5.724 1.482c.003.194-.013.389-.047.58h-3.84c.015.57.2 1.005.557 1.305.324.268.742.402 1.256.402.569 0 1.087-.09 1.554-.272l.2.888c-.545.237-1.188.356-1.931.356-.893 0-1.594-.263-2.105-.788-.509-.525-.764-1.23-.764-2.115 0-.868.237-1.59.712-2.167.497-.616 1.169-.924 2.014-.924.83 0 1.459.308 1.886.924.338.487.508 1.092.508 1.81zm-1.22-.332a1.732 1.732 0 00-.25-.984c-.22-.356-.562-.534-1.019-.534-.418 0-.76.174-1.018.522-.213.276-.34.609-.38.995h2.666zM27.142 8.1c-.355 0-.663-.018-.92-.048V4.191a7.027 7.027 0 011.084-.082c1.467 0 2.143.722 2.143 1.9 0 1.357-.798 2.09-2.307 2.09zm.215-3.496c-.198 0-.366.012-.506.041v2.936c.075.012.22.017.425.017.962 0 1.509-.547 1.509-1.572 0-.914-.495-1.422-1.428-1.422zm4.199 3.525c-.827 0-1.363-.618-1.363-1.456 0-.874.547-1.497 1.41-1.497.815 0 1.363.588 1.363 1.45 0 .885-.565 1.503-1.41 1.503zm.024-2.493c-.454 0-.745.424-.745 1.019 0 .582.297 1.007.74 1.007.442 0 .739-.454.739-1.02 0-.576-.291-1.006-.734-1.006zm6.104-.402l-.886 2.83h-.577l-.367-1.229a9.325 9.325 0 01-.227-.914h-.012a6.116 6.116 0 01-.227.914l-.39 1.23h-.583l-.834-2.83h.647l.32 1.345c.076.32.14.623.193.908h.012c.046-.238.122-.536.233-.902l.402-1.351h.513l.384 1.322c.094.32.17.635.228.932h.017c.04-.291.105-.6.192-.932l.344-1.322h.618zm3.26 2.83h-.63V6.44c0-.5-.192-.751-.57-.751-.373 0-.63.32-.63.693v1.683h-.629v-2.02c0-.251-.006-.52-.023-.81h.553l.03.436h.017c.17-.302.513-.494.897-.494.595 0 .985.454.985 1.194v1.694zm1.734 0h-.63V3.935h.63v4.13zm2.294.065c-.827 0-1.363-.618-1.363-1.456 0-.874.547-1.497 1.41-1.497.815 0 1.363.588 1.363 1.45 0 .885-.565 1.503-1.41 1.503zm.023-2.493c-.454 0-.745.424-.745 1.019 0 .582.298 1.007.739 1.007.443 0 .74-.454.74-1.02 0-.576-.29-1.006-.733-1.006zm3.867 2.428l-.045-.325H48.8c-.192.262-.473.39-.828.39-.507 0-.868-.356-.868-.833 0-.699.606-1.06 1.655-1.06v-.052c0-.373-.198-.56-.588-.56-.279 0-.524.07-.74.21l-.127-.413c.261-.164.588-.245.972-.245.74 0 1.113.39 1.113 1.17V7.39c0 .286.012.507.04.676h-.567zm-.086-1.41c-.699 0-1.05.17-1.05.571 0 .297.181.443.432.443.32 0 .618-.245.618-.576v-.437zm3.668 1.41l-.03-.454h-.017c-.18.343-.485.519-.909.519-.683 0-1.188-.6-1.188-1.445 0-.885.524-1.509 1.24-1.509.378 0 .647.128.798.385h.013V3.935h.63v3.367c0 .273.006.53.023.762h-.56zM52.35 6.4c0-.396-.263-.734-.663-.734-.467 0-.752.413-.752.996 0 .57.296.961.74.961.395 0 .675-.344.675-.751V6.4zm4.622 1.73c-.826 0-1.363-.618-1.363-1.456 0-.874.548-1.497 1.41-1.497.816 0 1.363.588 1.363 1.45 0 .885-.564 1.503-1.41 1.503zm.024-2.493c-.454 0-.745.424-.745 1.019 0 .582.297 1.007.739 1.007.443 0 .74-.454.74-1.02 0-.576-.29-1.006-.734-1.006zm4.77 2.428h-.63V6.44c0-.5-.192-.751-.57-.751-.374 0-.63.32-.63.693v1.683h-.63v-2.02c0-.251-.005-.52-.023-.81h.554l.03.436h.017c.168-.302.512-.495.897-.495.594 0 .985.455.985 1.194v1.695zM66 5.706h-.692V7.08c0 .35.12.525.366.525.11 0 .204-.012.279-.03l.017.478a1.39 1.39 0 01-.488.07c-.496 0-.792-.273-.792-.99V5.706h-.413v-.472h.413v-.518l.618-.187v.704H66v.473zm3.33 2.358h-.628V6.451c0-.506-.192-.763-.571-.763-.326 0-.63.222-.63.67v1.706h-.629V3.935h.63v1.7h.012a.954.954 0 01.85-.46c.6 0 .966.466.966 1.206v1.683zM72.743 6.8h-1.888c.011.536.366.839.892.839.279 0 .536-.047.763-.134l.097.437a2.363 2.363 0 01-.95.175c-.885 0-1.409-.56-1.409-1.427 0-.868.537-1.52 1.339-1.52.723 0 1.177.536 1.177 1.345.004.096-.003.192-.021.285zm-.577-.448c0-.437-.22-.745-.623-.745-.361 0-.647.314-.688.745h1.31z" fill="#fff"/></svg>