<svg fill="none" xmlns="http://www.w3.org/2000/svg" viewBox="0 0 16 16"><path d="M14.903 0h-1.42a.657.657 0 00-.657.603l-.337 3.372H.847a.906.906 0 00-.674.32.83.83 0 00-.142.727l1.899 7.436a.837.837 0 00.816.64h9.033c.053 0 .124 0 .178-.019.035 0 .053.018.088.018h.054a.483.483 0 00.479-.444l.035-.301.87-8.359h-.018l.302-3.017h1.136a.496.496 0 00.496-.497c0-.284-.212-.479-.496-.479zM1.007 4.951h11.376l-.728 7.17H2.853l-1.846-7.17zM4.361 16a1.42 1.42 0 100-2.84 1.42 1.42 0 000 2.84zm5.857 0a1.42 1.42 0 100-2.84 1.42 1.42 0 000 2.84z" fill="#4F4F4F"/></svg>