<svg fill="none" xmlns="http://www.w3.org/2000/svg" viewBox="0 0 15 14"><path d="M14.54 4.114c-.035-.746-.153-1.254-.326-1.7a3.434 3.434 0 00-.807-1.24c-.39-.39-.78-.629-1.24-.808-.447-.172-.955-.291-1.7-.325C9.72.008 9.483 0 7.582 0 5.681 0 5.443.008 4.696.042c-.746.035-1.254.153-1.7.326-.46.179-.851.418-1.24.807-.39.39-.629.78-.808 1.24-.172.447-.291.955-.325 1.7C.59 4.861.583 5.1.583 7c0 1.901.007 2.139.041 2.886.035.746.153 1.254.326 1.7.18.46.418.851.807 1.24.39.39.78.628 1.24.807.447.173.955.292 1.7.326.746.033.984.04 2.885.04 1.901 0 2.14-.007 2.886-.042.746-.034 1.254-.153 1.7-.325.46-.18.851-.418 1.24-.808.39-.389.629-.78.808-1.24.172-.446.291-.954.325-1.7.033-.745.04-.983.04-2.884 0-1.901-.007-2.14-.041-2.886zm-1.26 5.715c-.031.682-.145 1.053-.241 1.3-.127.326-.279.56-.524.803a2.18 2.18 0 01-.805.524c-.247.097-.617.21-1.299.242-.737.034-.959.04-2.829.04s-2.09-.006-2.83-.04c-.681-.032-1.052-.145-1.298-.242a2.146 2.146 0 01-.804-.524 2.18 2.18 0 01-.525-.804c-.096-.247-.21-.617-.24-1.299-.035-.737-.041-.959-.041-2.83 0-1.87.006-2.09.04-2.828.031-.682.145-1.054.241-1.3.127-.327.279-.56.525-.804a2.18 2.18 0 01.804-.524c.247-.096.617-.21 1.299-.24.737-.035.959-.041 2.829-.041s2.09.006 2.83.04c.681.031 1.052.145 1.298.241.327.127.56.279.804.524.245.245.398.479.525.805.096.247.21.617.24 1.299.035.737.041.958.041 2.829 0 1.87-.006 2.09-.04 2.83z" fill="#fff"/><path d="M7.582 3.406a3.594 3.594 0 100 7.188 3.594 3.594 0 000-7.188zm0 5.927a2.333 2.333 0 110-4.665 2.333 2.333 0 010 4.665zm3.928-5.252a.84.84 0 10-.385-1.635.84.84 0 00.386 1.635z" fill="#fff"/></svg>