<svg fill="none" xmlns="http://www.w3.org/2000/svg" viewBox="0 0 16 14"><path d="M4.006 5.094H1.823a.76.76 0 00-.76.76v7.387c0 .411.333.76.76.76h2.183a.76.76 0 00.76-.76V5.853a.77.77 0 00-.76-.759zm-.11 8.036H1.95V5.964h1.945v7.166zm8.921-8.005a3.985 3.985 0 00-2.072.332c-.3.142-.601.316-.886.522v-.142a.76.76 0 00-.76-.76H6.918a.76.76 0 00-.76.76v7.387c0 .411.333.76.76.76H9.1a.76.76 0 00.76-.76v-3.021a.884.884 0 111.772 0v3.037a.759.759 0 00.758.76h2.183a.76.76 0 00.76-.76V7.925c-.032-1.408-1.124-2.626-2.516-2.8zm1.614 8.004h-1.946v-2.942c0-.965-.79-1.756-1.756-1.756-.965 0-1.756.791-1.756 1.756v2.926h-1.93v-7.15H8.99v.49c0 .238.143.46.364.57.221.11.475.08.664-.079.095-.08.19-.142.254-.19.031-.031.063-.047.079-.063.237-.19.49-.332.759-.459.538-.237 1.107-.332 1.613-.269.965.111 1.709.965 1.709 1.946v5.22zM2.915 0a1.978 1.978 0 101.977 1.977C4.892.886 4.022 0 2.915 0zm0 3.085a1.11 1.11 0 01-1.108-1.108c0-.6.506-1.107 1.108-1.107a1.11 1.11 0 011.107 1.107 1.11 1.11 0 01-1.107 1.108z" fill="#fff"/></svg>