<svg fill="none" xmlns="http://www.w3.org/2000/svg" viewBox="0 0 11 16"><path d="M5.438 0A5.442 5.442 0 000 5.438c0 2.869 4.858 9.75 5.074 10.031l.364.531.365-.53c.2-.299 5.074-7.163 5.074-10.032A5.442 5.442 0 005.438 0zm0 14.408C3.896 12.153.912 7.411.912 5.438A4.522 4.522 0 015.438.912a4.532 4.532 0 014.527 4.526c0 1.957-2.985 6.715-4.527 8.97z" fill="#fff"/><path d="M5.438 2.852a2.37 2.37 0 100 4.74 2.37 2.37 0 000-4.74zm0 3.83a1.461 1.461 0 01-1.459-1.46c0-.795.664-1.458 1.46-1.458.795 0 1.458.663 1.458 1.459s-.646 1.459-1.459 1.459z" fill="#fff"/></svg>