<svg fill="none" xmlns="http://www.w3.org/2000/svg" viewBox="0 0 50 38"><path fill-rule="evenodd" clip-rule="evenodd" d="M.64 37.653l48.113.042c-4.414-2.948-17.705-4.428-24.058-4.427-1.781 0-4.16.122-6.746.363.275-1.927.298-21.241.025-22.668-4.26.745-3.167 5.381-3.169 9.71-.001 4.419.07 8.89-.01 13.301-5.67.707-11.59 1.94-14.155 3.679zm25.442-20.979h4.203c-.153-3.776-.405-7.406 3.561-7.846l.003 23.04-3.498-.324c-.104-3.849-.036-7.804-.02-11.685h-4.25v11.457l-4.31.055c-.003-5.824-.002-11.648 0-17.472.003-4.8-1.447-13.222 4.313-12.89l-.002 15.665zM9.308 32.765c3.526.08 2.788-.916 2.786-4.154l-.002-12.214c-1.333-.163-2.359.752-2.659 1.842-.265.96-.103 12.873-.125 14.526zm30.779.014l-.013-16.417c-3.686-.147-2.776 4.99-2.776 8.08 0 8.492-.775 8.326 2.789 8.337z" fill="#000" stroke="#000" stroke-width=".216"/></svg>