<svg fill="none" xmlns="http://www.w3.org/2000/svg" viewBox="0 0 32 32"><rect width="32" height="32" rx="4" fill="#FFCA05"/><path fill-rule="evenodd" clip-rule="evenodd" d="M10.07 19.552l13.719.012c-1.259-.84-5.049-1.262-6.86-1.262-.508 0-1.186.034-1.923.103.078-.55.085-6.056.007-6.463-1.215.212-.903 1.534-.904 2.769 0 1.26.02 2.534-.003 3.792-1.616.201-3.304.553-4.036 1.049zm7.255-5.982h1.198c-.044-1.077-.116-2.111 1.015-2.237l.001 6.57-.997-.093c-.03-1.097-.01-2.225-.006-3.332h-1.212v3.267l-1.229.016v-4.982c.001-1.369-.412-3.77 1.23-3.675v4.466zm-4.783 4.588c1.005.023.795-.261.794-1.184V13.49c-.38-.046-.673.215-.758.525-.076.274-.03 3.67-.036 4.142zm8.776.004l-.004-4.68c-1.051-.043-.791 1.422-.791 2.303 0 2.421-.221 2.374.795 2.377z" fill="#000"/><path fill-rule="evenodd" clip-rule="evenodd" d="M10.029 19.552l13.718.012c-1.259-.84-5.048-1.262-6.86-1.262-.508 0-1.186.034-1.923.103.078-.55.085-6.056.007-6.463-1.215.212-.903 1.534-.903 2.769 0 1.26.02 2.534-.003 3.792-1.617.201-3.305.553-4.036 1.049zm7.254-5.982h1.198c-.043-1.077-.115-2.111 1.016-2.237v6.57l-.997-.093c-.03-1.097-.01-2.225-.006-3.332h-1.211v3.267l-1.23.016v-4.982c.002-1.369-.412-3.77 1.23-3.675v4.466zM12.5 18.158c1.005.023.795-.261.794-1.184V13.49c-.38-.046-.673.215-.758.525-.076.274-.03 3.67-.036 4.142zm8.776.004l-.003-4.68c-1.052-.043-.792 1.422-.792 2.303 0 2.421-.221 2.374.795 2.377z" fill="#000" stroke="#000" stroke-width=".216"/><path fill-rule="evenodd" clip-rule="evenodd" d="M8.461 22.674v.16h-1.32v-2.135h.395v1.975h.925zm.635.16h-.392v-2.135h.392v2.135zm2.285-.997v.72c-.126.11-.256.191-.391.246a1.102 1.102 0 01-.42.083c-.319 0-.576-.103-.773-.309-.197-.206-.296-.475-.296-.81 0-.317.1-.583.298-.795a.97.97 0 01.739-.318.94.94 0 01.465.11.87.87 0 01.327.33l-.128.09a.755.755 0 00-.245-.293.596.596 0 00-.338-.097.592.592 0 00-.509.265c-.124.177-.187.418-.187.723 0 .294.06.522.18.686a.584.584 0 00.5.245c.083 0 .16-.012.232-.038a.54.54 0 00.186-.112v-.726h.36zm.834-.01v1.007h-.396v-2.135h.396v.971h.892v-.97h.393v2.134h-.393v-1.007h-.892zm2.138 1.007V20.86h-.559v-.16h1.51v.16h-.558v1.974h-.393zm1.645 0h-.392v-2.135h.392v2.135zm.553 0v-2.135h.362l1.105 1.474V20.7h.19v2.135h-.19l-1.278-1.7v1.7h-.19zm3.925-.997v.72c-.126.11-.256.191-.391.246a1.102 1.102 0 01-.42.083c-.318 0-.576-.103-.773-.309-.197-.206-.296-.475-.296-.81 0-.317.1-.583.299-.795a.97.97 0 01.738-.318.94.94 0 01.466.11c.13.073.24.183.326.33l-.128.09a.755.755 0 00-.245-.293.596.596 0 00-.338-.097.592.592 0 00-.508.265c-.125.177-.188.418-.188.723 0 .294.06.522.18.686.12.163.287.245.5.245.083 0 .16-.012.233-.038a.54.54 0 00.185-.112v-.726h.36zm.834-.01v1.007h-.395v-2.135h.395v.971h.893v-.97h.392v2.134h-.392v-1.007h-.893zm2.008.304h.621l-.31-.778-.31.778zm-.464.703l.876-2.177.912 2.177h-.421l-.223-.569h-.735l-.22.569h-.19zm1.986-2.135h.396v1.29c0 .25.035.425.105.524.07.099.19.148.357.148.166 0 .285-.05.355-.148.07-.099.104-.274.104-.525V20.7h.19v1.361c0 .275-.063.482-.187.62-.126.138-.314.206-.565.206a.87.87 0 01-.321-.06.681.681 0 01-.254-.166.596.596 0 01-.139-.234 1.261 1.261 0 01-.04-.366V20.7zm2.078 1.73a.552.552 0 00.18.209c.072.05.15.075.235.075a.374.374 0 00.277-.108.376.376 0 00.107-.277c0-.18-.159-.335-.477-.466l-.005-.002c-.171-.07-.293-.15-.364-.238a.513.513 0 01-.108-.335.6.6 0 01.185-.455.661.661 0 01.479-.178c.146 0 .275.033.385.099.11.066.192.16.245.28l-.14.095a.476.476 0 00-.158-.23.399.399 0 00-.25-.081.342.342 0 00-.255.1.354.354 0 00-.099.26.31.31 0 00.082.218c.054.059.156.12.305.184.235.102.39.198.465.29a.547.547 0 01.112.356c0 .192-.066.35-.198.474a.705.705 0 01-.504.187.802.802 0 01-.38-.084.762.762 0 01-.277-.262l.157-.111zm-22.684.415v-1.325h-.376v-.107h1.014v.107h-.375v1.325h-.263zm1.004 0H5.03V21.31h.208v.979h.356v-.384h.208v.939h-.208v-.474h-.356v.474zm.858-.77c0-.07.011-.116.033-.136.024-.022.07-.033.143-.033h.447v.081h-.32c-.038 0-.064.005-.075.016-.013.01-.02.03-.02.059v.237h.34v.092h-.34v.298c0 .029.007.049.02.06.013.01.042.015.09.015h.316v.081h-.491c-.053 0-.09-.011-.112-.033-.02-.022-.031-.068-.031-.136v-.601z" fill="#000"/></svg>