<svg fill="none" xmlns="http://www.w3.org/2000/svg" viewBox="0 0 14 14"><path d="M11.951 2.048A6.943 6.943 0 007 0a6.943 6.943 0 00-4.952 2.048A6.943 6.943 0 000 7c0 1.871.722 3.625 2.048 4.951A6.943 6.943 0 007 14a6.943 6.943 0 004.951-2.049A6.943 6.943 0 0014 7a6.943 6.943 0 00-2.049-4.952zM7 13.322A6.32 6.32 0 01.678 7 6.32 6.32 0 017 .678c3.492 0 6.322 2.844 6.322 6.322S10.492 13.322 7 13.322z" fill="#fff"/><path d="M10.301 3.758c-.25-.162-.604-.03-.707.015L2.918 6.38c-.236.088-.5.28-.457.59.045.353.413.486.457.5l1.547.516c.118.398.487 1.592.575 1.857.074.221.162.472.398.486.03.015.074.015.133.015.147 0 .235-.044.294-.118l.9-.825 1.517 1.164c.015.015.03.03.06.03a.785.785 0 00.338.073c.103 0 .192-.03.25-.044.266-.103.37-.354.384-.383 0-.015.015-.03.015-.044L10.522 4.2v-.044a.483.483 0 00-.22-.398zm-4.51 5.835l.09-.825.441.34-.53.485zm3.007.487c-.015.014-.044.059-.088.088a.178.178 0 01-.148-.014L6.897 8.87l-.825-.648a463.96 463.96 0 002.962-2.667c.088-.089.191-.192.177-.354 0-.015 0-.03-.015-.044a.29.29 0 00-.147-.221c-.163-.089-.34-.03-.472.059l-3.935 2.52-1.562-.53c-.03-.016-.073-.03-.088-.06.03-.015.059-.044.088-.044h.015l6.676-2.623h.014c.045-.015.118-.044.177-.044L8.798 10.08z" fill="#fff"/></svg>