<svg fill="none" xmlns="http://www.w3.org/2000/svg" viewBox="0 0 18 14"><path d="M5.92 14c-1.452 0-3.534-.28-5.284-1.593a.836.836 0 01-.263-1.015c.14-.367.525-.56.91-.49 0 0 1.278.21 2.433-.192-.63-.385-1.278-1.033-1.628-2.135a.895.895 0 010-.525C1.511 7.472.951 6.562.968 5.18c0-.245.123-.473.298-.63-.35-.858-.56-2.118.245-3.5a.913.913 0 01.647-.42.85.85 0 01.718.297c.017.018 2.17 2.503 4.847 2.87C7.793 1.697 9.508 0 11.626 0c.91 0 1.802.315 2.485.892a2.808 2.808 0 001.277-.49.81.81 0 01.84-.07c.28.123.455.403.49.7 0 .088 0 .263-.07.49a.381.381 0 01.14.088.84.84 0 01.332.927c-.105.403-.63 1.033-1.557 1.89-.035 1.698-.648 7.753-7.682 9.398 0 0-.805.175-1.96.175zm-4.322-2.1c1.453.927 3.133 1.137 4.323 1.137 1.05 0 1.767-.157 1.785-.157 6.667-1.558 6.947-7.49 6.93-8.663v-.21l.157-.14c.648-.595 1.015-.997 1.207-1.242-.034 0-.052 0-.087.017l-.98.333c-.158.052-.297-.14-.192-.28l.647-.805c.175-.21.262-.385.315-.525a3.603 3.603 0 01-1.732.525h-.193l-.158-.14a2.935 2.935 0 00-4.935 2.152c0 .123 0 .228.018.35l.035.35c.018.105-.07.193-.175.193l-.35-.018C5.238 4.725 2.806 2.275 2.246 1.68c-.613 1.19-.263 2.24.157 2.94l.578.962c.087.158-.07.333-.228.245l-.805-.437c.035.945.403 1.68 1.103 2.205l.42.332c.105.088.087.245-.035.298l-.385.157c.402 1.173 1.277 1.645 1.942 1.82l.63.175c.14.035.175.228.053.315l-.525.368c-1.225.857-2.765.892-3.553.84z" fill="#fff"/></svg>